%TF.GenerationSoftware,KiCad,Pcbnew,7.0.10-7.0.10~ubuntu22.04.1*%
%TF.CreationDate,2024-03-01T21:08:23-05:00*%
%TF.ProjectId,digit_8x9,64696769-745f-4387-9839-2e6b69636164,rev?*%
%TF.SameCoordinates,Original*%
%TF.FileFunction,Soldermask,Bot*%
%TF.FilePolarity,Negative*%
%FSLAX46Y46*%
G04 Gerber Fmt 4.6, Leading zero omitted, Abs format (unit mm)*
G04 Created by KiCad (PCBNEW 7.0.10-7.0.10~ubuntu22.04.1) date 2024-03-01 21:08:23*
%MOMM*%
%LPD*%
G01*
G04 APERTURE LIST*
%ADD10R,1.600000X0.550000*%
%ADD11R,0.550000X1.600000*%
%ADD12C,1.500000*%
G04 APERTURE END LIST*
D10*
%TO.C,U3*%
X96140000Y-54200000D03*
X96140000Y-55000000D03*
X96140000Y-55800000D03*
X96140000Y-56600000D03*
X96140000Y-57400000D03*
X96140000Y-58200000D03*
X96140000Y-59000000D03*
X96140000Y-59800000D03*
D11*
X94690000Y-61250000D03*
X93890000Y-61250000D03*
X93090000Y-61250000D03*
X92290000Y-61250000D03*
X91490000Y-61250000D03*
X90690000Y-61250000D03*
X89890000Y-61250000D03*
X89090000Y-61250000D03*
D10*
X87640000Y-59800000D03*
X87640000Y-59000000D03*
X87640000Y-58200000D03*
X87640000Y-57400000D03*
X87640000Y-56600000D03*
X87640000Y-55800000D03*
X87640000Y-55000000D03*
X87640000Y-54200000D03*
D11*
X89090000Y-52750000D03*
X89890000Y-52750000D03*
X90690000Y-52750000D03*
X91490000Y-52750000D03*
X92290000Y-52750000D03*
X93090000Y-52750000D03*
X93890000Y-52750000D03*
X94690000Y-52750000D03*
%TD*%
D12*
%TO.C,LED1*%
X83000000Y-69000000D03*
X85540000Y-69000000D03*
X88080000Y-69000000D03*
X90620000Y-69000000D03*
X93160000Y-69000000D03*
X95700000Y-69000000D03*
X98240000Y-69000000D03*
X100780000Y-69000000D03*
X100780000Y-45000000D03*
X98240000Y-45000000D03*
X95700000Y-45000000D03*
X93160000Y-45000000D03*
X90620000Y-45000000D03*
X88080000Y-45000000D03*
X85540000Y-45000000D03*
X83000000Y-45000000D03*
%TD*%
M02*
