%TF.GenerationSoftware,KiCad,Pcbnew,7.0.10-7.0.10~ubuntu22.04.1*%
%TF.CreationDate,2024-03-01T21:08:23-05:00*%
%TF.ProjectId,digit_8x9,64696769-745f-4387-9839-2e6b69636164,rev?*%
%TF.SameCoordinates,Original*%
%TF.FileFunction,Legend,Top*%
%TF.FilePolarity,Positive*%
%FSLAX46Y46*%
G04 Gerber Fmt 4.6, Leading zero omitted, Abs format (unit mm)*
G04 Created by KiCad (PCBNEW 7.0.10-7.0.10~ubuntu22.04.1) date 2024-03-01 21:08:23*
%MOMM*%
%LPD*%
G01*
G04 APERTURE LIST*
%ADD10C,0.150000*%
%ADD11C,0.100000*%
G04 APERTURE END LIST*
D10*
X81204819Y-58119047D02*
X81204819Y-58595237D01*
X81204819Y-58595237D02*
X80204819Y-58595237D01*
X80681009Y-57785713D02*
X80681009Y-57452380D01*
X81204819Y-57309523D02*
X81204819Y-57785713D01*
X81204819Y-57785713D02*
X80204819Y-57785713D01*
X80204819Y-57785713D02*
X80204819Y-57309523D01*
X81204819Y-56880951D02*
X80204819Y-56880951D01*
X80204819Y-56880951D02*
X80204819Y-56642856D01*
X80204819Y-56642856D02*
X80252438Y-56499999D01*
X80252438Y-56499999D02*
X80347676Y-56404761D01*
X80347676Y-56404761D02*
X80442914Y-56357142D01*
X80442914Y-56357142D02*
X80633390Y-56309523D01*
X80633390Y-56309523D02*
X80776247Y-56309523D01*
X80776247Y-56309523D02*
X80966723Y-56357142D01*
X80966723Y-56357142D02*
X81061961Y-56404761D01*
X81061961Y-56404761D02*
X81157200Y-56499999D01*
X81157200Y-56499999D02*
X81204819Y-56642856D01*
X81204819Y-56642856D02*
X81204819Y-56880951D01*
X81204819Y-55357142D02*
X81204819Y-55928570D01*
X81204819Y-55642856D02*
X80204819Y-55642856D01*
X80204819Y-55642856D02*
X80347676Y-55738094D01*
X80347676Y-55738094D02*
X80442914Y-55833332D01*
X80442914Y-55833332D02*
X80490533Y-55928570D01*
D11*
X77717693Y-71872419D02*
X77146265Y-71872419D01*
X77431979Y-71872419D02*
X77431979Y-70872419D01*
X77431979Y-70872419D02*
X77336741Y-71015276D01*
X77336741Y-71015276D02*
X77241503Y-71110514D01*
X77241503Y-71110514D02*
X77146265Y-71158133D01*
%TO.C,LED1*%
X75890000Y-41000000D02*
X107890000Y-41000000D01*
X75890000Y-73000000D02*
X75890000Y-41000000D01*
X107890000Y-41000000D02*
X107890000Y-73000000D01*
X107890000Y-73000000D02*
X75890000Y-73000000D01*
%TD*%
M02*
