M48
; DRILL file {KiCad 8.0.1-8.0.1-1~ubuntu22.04.1} date 2024-04-19T16:39:09-0400
; FORMAT={-:-/ absolute / inch / decimal}
; #@! TF.CreationDate,2024-04-19T16:39:09-04:00
; #@! TF.GenerationSoftware,Kicad,Pcbnew,8.0.1-8.0.1-1~ubuntu22.04.1
; #@! TF.FileFunction,Plated,1,2,PTH
FMAT,2
INCH
; #@! TA.AperFunction,Plated,PTH,ViaDrill
T1C0.0120
; #@! TA.AperFunction,Plated,PTH,ComponentDrill
T2C0.0315
; #@! TA.AperFunction,Plated,PTH,ComponentDrill
T3C0.0394
; #@! TA.AperFunction,Plated,PTH,ComponentDrill
T4C0.0630
%
G90
G05
T1
X4.177Y-2.937
X4.377Y-2.082
X4.497Y-2.927
X4.662Y-3.177
X4.702Y-3.717
X4.717Y-2.932
X4.912Y-3.692
X5.002Y-2.9065
X5.077Y-2.127
X5.127Y-3.667
X5.272Y-3.202
X5.452Y-3.257
X5.497Y-3.632
X5.592Y-3.2275
X5.682Y-3.172
X5.697Y-2.077
X5.732Y-3.202
X5.747Y-2.872
X5.792Y-3.257
X5.877Y-2.872
X5.882Y-3.607
X5.932Y-3.722
X5.937Y-3.227
X5.987Y-3.292
X6.022Y-2.867
X6.037Y-2.127
X6.037Y-3.692
X6.092Y-3.292
X6.132Y-3.667
X6.137Y-3.257
X6.177Y-2.867
X6.182Y-3.582
X6.2429Y-3.6314
X6.252Y-2.092
X6.2815Y-3.4365
X6.332Y-3.607
X6.432Y-3.582
T2
X4.087Y-3.1136
X4.087Y-3.3104
X4.262Y-3.062
X4.262Y-3.362
X4.362Y-3.062
X4.362Y-3.362
X4.462Y-3.062
X4.462Y-3.362
X4.562Y-3.062
X4.562Y-3.362
X4.662Y-3.062
X4.662Y-3.362
X4.762Y-3.062
X4.762Y-3.362
X4.862Y-3.062
X4.862Y-3.362
X4.962Y-3.062
X4.962Y-3.362
X5.062Y-3.062
X5.062Y-3.362
X5.162Y-3.062
X5.162Y-3.362
X5.362Y-3.1152
X5.362Y-3.312
X5.537Y-3.062
X5.537Y-3.362
X5.637Y-3.062
X5.637Y-3.362
X5.737Y-3.062
X5.737Y-3.362
X5.837Y-3.062
X5.837Y-3.362
X5.937Y-3.062
X5.937Y-3.362
X6.037Y-3.062
X6.037Y-3.362
X6.137Y-3.062
X6.137Y-3.362
X6.237Y-3.062
X6.237Y-3.362
X6.337Y-3.062
X6.337Y-3.362
X6.437Y-3.062
X6.437Y-3.362
T3
X4.287Y-2.312
X4.287Y-2.412
X4.287Y-2.512
X4.287Y-2.612
X4.287Y-2.712
X4.562Y-2.312
X4.562Y-2.412
X4.562Y-2.512
X4.562Y-2.612
X4.562Y-2.712
X4.677Y-1.937
X4.777Y-1.937
X4.812Y-2.312
X4.812Y-2.412
X4.812Y-2.512
X4.812Y-2.612
X4.812Y-2.712
X4.877Y-1.937
X4.977Y-1.937
X5.037Y-3.837
X5.077Y-1.937
X5.087Y-2.312
X5.087Y-2.412
X5.087Y-2.512
X5.087Y-2.612
X5.087Y-2.712
X5.137Y-3.837
X5.177Y-1.937
X5.237Y-3.837
X5.277Y-1.937
X5.337Y-3.837
X5.362Y-2.312
X5.362Y-2.412
X5.362Y-2.512
X5.362Y-2.612
X5.362Y-2.712
X5.377Y-1.937
X5.437Y-3.837
X5.477Y-1.937
X5.537Y-3.837
X5.577Y-1.937
X5.6209Y-2.312
X5.6209Y-2.412
X5.6209Y-2.512
X5.6209Y-2.612
X5.6209Y-2.712
X5.637Y-3.837
X5.737Y-1.937
X5.737Y-3.837
X5.837Y-1.937
X5.887Y-2.312
X5.887Y-2.412
X5.887Y-2.512
X5.887Y-2.612
X5.887Y-2.712
X5.937Y-1.937
X5.937Y-3.837
X6.037Y-1.937
X6.037Y-3.837
X6.137Y-1.937
X6.137Y-3.837
X6.162Y-2.312
X6.162Y-2.412
X6.162Y-2.512
X6.162Y-2.612
X6.162Y-2.712
X6.237Y-1.937
X6.237Y-3.837
X6.337Y-1.937
X6.337Y-3.837
X6.437Y-1.937
X6.437Y-3.837
T4
X4.117Y-3.587
X4.117Y-3.7248
M30
